<?xml version="1.0" encoding="UTF-8" standalone="no"?>
<!-- Created with Inkscape (http://www.inkscape.org/) -->

<svg
   width="210mm"
   height="297mm"
   viewBox="0 0 210 297"
   version="1.1"
   id="svg1"
   xml:space="preserve"
   inkscape:version="1.3-dev (178f9bc, 2023-02-07)"
   sodipodi:docname="massage preview.svg"
   xmlns:inkscape="http://www.inkscape.org/namespaces/inkscape"
   xmlns:sodipodi="http://sodipodi.sourceforge.net/DTD/sodipodi-0.dtd"
   xmlns="http://www.w3.org/2000/svg"
   xmlns:svg="http://www.w3.org/2000/svg"><sodipodi:namedview
     id="namedview1"
     pagecolor="#ffffff"
     bordercolor="#000000"
     borderopacity="0.25"
     inkscape:showpageshadow="2"
     inkscape:pageopacity="0.0"
     inkscape:pagecheckerboard="0"
     inkscape:deskcolor="#d1d1d1"
     inkscape:document-units="mm"
     showgrid="false"
     inkscape:zoom="0.4204826"
     inkscape:cx="893.02149"
     inkscape:cy="416.18845"
     inkscape:window-width="1920"
     inkscape:window-height="1026"
     inkscape:window-x="0"
     inkscape:window-y="0"
     inkscape:window-maximized="1"
     inkscape:current-layer="layer1"><inkscape:grid
       id="grid1"
       visible="false" /></sodipodi:namedview><defs
     id="defs1"><inkscape:path-effect
       effect="bspline"
       id="path-effect2"
       is_visible="true"
       lpeversion="1.3"
       weight="33.333333"
       steps="2"
       helper_size="0"
       apply_no_weight="true"
       apply_with_weight="true"
       only_selected="false"
       uniform="false" /><inkscape:path-effect
       effect="bspline"
       id="path-effect1"
       is_visible="true"
       lpeversion="1.3"
       weight="33.333333"
       steps="2"
       helper_size="0"
       apply_no_weight="true"
       apply_with_weight="true"
       only_selected="false"
       uniform="false" /><inkscape:path-effect
       effect="bspline"
       id="path-effect2-7"
       is_visible="true"
       lpeversion="1.3"
       weight="33.333333"
       steps="2"
       helper_size="0"
       apply_no_weight="true"
       apply_with_weight="true"
       only_selected="false"
       uniform="false" /><inkscape:path-effect
       effect="bspline"
       id="path-effect1-5"
       is_visible="true"
       lpeversion="1.3"
       weight="33.333333"
       steps="2"
       helper_size="0"
       apply_no_weight="true"
       apply_with_weight="true"
       only_selected="false"
       uniform="false" /><inkscape:path-effect
       effect="bspline"
       id="path-effect2-6"
       is_visible="true"
       lpeversion="1.3"
       weight="33.333333"
       steps="2"
       helper_size="0"
       apply_no_weight="true"
       apply_with_weight="true"
       only_selected="false"
       uniform="false" /><inkscape:path-effect
       effect="bspline"
       id="path-effect1-1"
       is_visible="true"
       lpeversion="1.3"
       weight="33.333333"
       steps="2"
       helper_size="0"
       apply_no_weight="true"
       apply_with_weight="true"
       only_selected="false"
       uniform="false" /></defs><g
     inkscape:label="Layer 1"
     inkscape:groupmode="layer"
     id="layer1"><rect
       style="fill:#006333;fill-opacity:1;stroke:none;stroke-width:2.23822;stroke-linecap:round;stroke-linejoin:round;paint-order:fill markers stroke"
       id="rect2"
       width="32.080288"
       height="29.740065"
       x="314.3291"
       y="29.539732"
       inkscape:export-filename="massage preview.png"
       inkscape:export-xdpi="110.514"
       inkscape:export-ydpi="110.514" /><rect
       style="fill:#ffffff;fill-opacity:1;stroke:none;stroke-width:2.23822;stroke-linecap:round;stroke-linejoin:round;paint-order:fill markers stroke"
       id="rect2-6"
       width="32.080288"
       height="29.740065"
       x="346.40939"
       y="29.539732" /><rect
       style="fill:#ffffff;fill-opacity:1;stroke:none;stroke-width:2.23822;stroke-linecap:round;stroke-linejoin:round;paint-order:fill markers stroke"
       id="rect2-2"
       width="32.080288"
       height="29.740065"
       x="314.3291"
       y="59.279797" /><rect
       style="fill:#006333;fill-opacity:1;stroke:none;stroke-width:2.23822;stroke-linecap:round;stroke-linejoin:round;paint-order:fill markers stroke"
       id="rect2-6-7"
       width="32.080288"
       height="29.740065"
       x="346.40939"
       y="59.279797" /><rect
       style="fill:#006333;fill-opacity:1;stroke:none;stroke-width:2.23822;stroke-linecap:round;stroke-linejoin:round;paint-order:fill markers stroke"
       id="rect2-60"
       width="32.080288"
       height="29.740065"
       x="250.16852"
       y="29.539732" /><rect
       style="fill:#ffffff;fill-opacity:1;stroke:none;stroke-width:2.23822;stroke-linecap:round;stroke-linejoin:round;paint-order:fill markers stroke"
       id="rect2-6-6"
       width="32.080288"
       height="29.740065"
       x="282.24881"
       y="29.539732" /><rect
       style="fill:#ffffff;fill-opacity:1;stroke:none;stroke-width:2.23822;stroke-linecap:round;stroke-linejoin:round;paint-order:fill markers stroke"
       id="rect2-2-2"
       width="32.080288"
       height="29.740065"
       x="250.16852"
       y="59.279804" /><rect
       style="fill:#006333;fill-opacity:1;stroke:none;stroke-width:2.23822;stroke-linecap:round;stroke-linejoin:round;paint-order:fill markers stroke"
       id="rect2-6-7-6"
       width="32.080288"
       height="29.740065"
       x="282.24881"
       y="59.279804" /><rect
       style="fill:#006333;fill-opacity:1;stroke:none;stroke-width:2.23822;stroke-linecap:round;stroke-linejoin:round;paint-order:fill markers stroke"
       id="rect2-9"
       width="32.080288"
       height="29.740065"
       x="314.3291"
       y="89.019867" /><rect
       style="fill:#ffffff;fill-opacity:1;stroke:none;stroke-width:2.23822;stroke-linecap:round;stroke-linejoin:round;paint-order:fill markers stroke"
       id="rect2-6-2"
       width="32.080288"
       height="29.740065"
       x="346.40939"
       y="89.019867" /><rect
       style="fill:#ffffff;fill-opacity:1;stroke:none;stroke-width:2.23822;stroke-linecap:round;stroke-linejoin:round;paint-order:fill markers stroke"
       id="rect2-2-0"
       width="32.080288"
       height="29.740065"
       x="314.3291"
       y="118.75993" /><rect
       style="fill:#006333;fill-opacity:1;stroke:none;stroke-width:2.23822;stroke-linecap:round;stroke-linejoin:round;paint-order:fill markers stroke"
       id="rect2-6-7-2"
       width="32.080288"
       height="29.740065"
       x="346.40939"
       y="118.75993" /><rect
       style="fill:#006333;fill-opacity:1;stroke:none;stroke-width:2.23822;stroke-linecap:round;stroke-linejoin:round;paint-order:fill markers stroke"
       id="rect2-60-3"
       width="32.080288"
       height="29.740065"
       x="250.16852"
       y="89.019867" /><rect
       style="fill:#ffffff;fill-opacity:1;stroke:none;stroke-width:2.23822;stroke-linecap:round;stroke-linejoin:round;paint-order:fill markers stroke"
       id="rect2-6-6-7"
       width="32.080288"
       height="29.740065"
       x="282.24881"
       y="89.019867" /><rect
       style="fill:#ffffff;fill-opacity:1;stroke:none;stroke-width:2.23822;stroke-linecap:round;stroke-linejoin:round;paint-order:fill markers stroke"
       id="rect2-2-2-5"
       width="32.080288"
       height="29.740065"
       x="250.16852"
       y="118.75995" /><rect
       style="fill:#006333;fill-opacity:1;stroke:none;stroke-width:2.23822;stroke-linecap:round;stroke-linejoin:round;paint-order:fill markers stroke"
       id="rect2-60-0"
       width="32.080288"
       height="29.740065"
       x="410.56998"
       y="-148.5"
       transform="scale(1,-1)" /><rect
       style="fill:#ffffff;fill-opacity:1;stroke:none;stroke-width:2.23822;stroke-linecap:round;stroke-linejoin:round;paint-order:fill markers stroke"
       id="rect2-2-2-6"
       width="32.080288"
       height="29.740065"
       x="410.56998"
       y="-118.75993"
       transform="scale(1,-1)" /><rect
       style="fill:#006333;fill-opacity:1;stroke:none;stroke-width:2.23822;stroke-linecap:round;stroke-linejoin:round;paint-order:fill markers stroke"
       id="rect2-60-3-1"
       width="32.080288"
       height="29.740065"
       x="410.56998"
       y="-89.019859"
       transform="scale(1,-1)" /><rect
       style="fill:#ffffff;fill-opacity:1;stroke:none;stroke-width:2.23822;stroke-linecap:round;stroke-linejoin:round;paint-order:fill markers stroke"
       id="rect2-2-2-5-5"
       width="32.080288"
       height="29.740065"
       x="410.56998"
       y="-59.279781"
       transform="scale(1,-1)" /><rect
       style="fill:#006333;fill-opacity:1;stroke:none;stroke-width:2.23822;stroke-linecap:round;stroke-linejoin:round;paint-order:fill markers stroke"
       id="rect2-60-1"
       width="32.080288"
       height="29.740065"
       x="378.48969"
       y="29.539732" /><rect
       style="fill:#ffffff;fill-opacity:1;stroke:none;stroke-width:2.23822;stroke-linecap:round;stroke-linejoin:round;paint-order:fill markers stroke"
       id="rect2-2-2-9"
       width="32.080288"
       height="29.740065"
       x="378.48969"
       y="59.279797" /><rect
       style="fill:#006333;fill-opacity:1;stroke:none;stroke-width:2.23822;stroke-linecap:round;stroke-linejoin:round;paint-order:fill markers stroke"
       id="rect2-60-3-4"
       width="32.080288"
       height="29.740065"
       x="378.48969"
       y="89.019859" /><rect
       style="fill:#ffffff;fill-opacity:1;stroke:none;stroke-width:2.23822;stroke-linecap:round;stroke-linejoin:round;paint-order:fill markers stroke"
       id="rect2-2-2-5-7"
       width="32.080288"
       height="29.740065"
       x="378.48969"
       y="118.75993" /><rect
       style="fill:#006333;fill-opacity:1;stroke:none;stroke-width:2.23822;stroke-linecap:round;stroke-linejoin:round;paint-order:fill markers stroke"
       id="rect2-6-7-6-9"
       width="32.080288"
       height="29.740065"
       x="282.24881"
       y="118.75995" /><path
       style="fill:#dc6c3a;fill-opacity:1;stroke:#000000;stroke-width:5.50353;stroke-linecap:butt;stroke-linejoin:miter;stroke-dasharray:none;stroke-opacity:1"
       d="m 420.85768,96.52506 c 0.29535,-6.947369 0.29535,-20.842157 0.0487,-27.394398 -0.24661,-6.552241 -0.66443,-5.88281 -10.12023,-2.511921 -9.45579,3.370888 -27.9111,9.382583 -40.65444,11.019661 -12.74334,1.637077 -19.77404,-1.10047 -28.6001,-5.387398 -8.82606,-4.286929 -19.44689,-10.122941 -25.83194,-16.351315 -6.38505,-6.228374 -8.53402,-12.848734 -11.4462,-14.699101 -2.91218,-1.850367 -6.61299,1.089608 -6.20955,7.245268 0.40345,6.155661 4.90506,15.55102 11.45757,23.720208 6.5525,8.169189 15.15888,15.118896 21.58104,22.918794 6.42216,7.799902 10.65976,16.449512 14.38884,22.317792 3.72908,5.86828 6.94941,8.95491 14.01197,6.74676 7.06257,-2.20816 17.96686,-9.71089 28.59024,-14.03954 10.62338,-4.32865 20.96523,-5.48303 26.43161,-6.06024 5.46639,-0.5772 6.0571,-0.5772 6.35245,-7.52457 z"
       id="path2"
       inkscape:path-effect="#path-effect2"
       inkscape:original-d="m 421.15303,103.47243 c 0,-13.894739 0,-27.789527 0,-41.684245 -0.48933,0.792665 -0.91104,1.45967 -1.36657,2.189506 -18.45606,6.01194 -36.91138,12.023609 -55.36706,18.03545 -7.03099,-2.73767 -14.06169,-5.475214 -21.09255,-8.212818 -10.62127,-5.836231 -21.2421,-11.672249 -31.86313,-17.508384 -2.14906,-6.620623 -4.29803,-13.240983 -6.44704,-19.861475 -3.67285,2.92291 -7.37616,5.859729 -11.06423,8.789592 4.48831,9.384646 8.99657,18.776821 13.49485,28.16521 8.60673,6.949985 17.21311,13.899695 25.81966,20.849535 4.23776,8.649959 8.47535,17.299579 12.71306,25.949369 3.22047,3.08676 6.4408,6.17339 9.66121,9.2601 10.90472,-7.50302 21.80901,-15.00575 32.71352,-22.50862 10.34225,-1.15443 20.6841,-2.30881 31.02614,-3.46322 0.59073,0 1.18144,0 1.77214,0 z" /><path
       style="fill:#d5a697;fill-opacity:1;stroke:#000000;stroke-width:5.50353;stroke-linecap:butt;stroke-linejoin:miter;stroke-dasharray:none;stroke-opacity:1"
       d="m 273.29789,76.749102 c 4.26518,-0.91843 12.23519,-2.244158 19.1749,-1.228786 6.93971,1.015372 12.84847,4.371699 16.86537,7.307692 4.01689,2.935993 6.14141,5.451279 8.71876,6.665319 2.57735,1.214039 5.60727,1.126677 10.35621,1.511294 4.74894,0.384617 11.21657,1.241178 13.53952,3.064838 2.32295,1.82366 0.50112,4.614294 -4.56349,6.109751 -5.06461,1.49546 -13.37166,1.69569 -15.60578,1.67321 -2.23412,-0.0225 1.60469,-0.26767 3.32134,-0.23243 1.71666,0.0352 1.3111,0.35089 3.28479,4.1535 1.97369,3.80261 6.32648,11.0919 11.10857,16.51087 4.78209,5.41896 9.99319,8.9673 11.72669,11.57494 1.7335,2.60763 -0.0742,4.3352 -3.70003,3.99242 -3.6258,-0.34278 -9.10123,-2.72546 -15.98062,-9.5404 -6.87939,-6.81495 -15.1684,-18.06993 -23.58535,-24.12608 -8.41695,-6.056143 -16.96437,-6.917322 -23.59329,-7.22782 -6.62893,-0.310497 -11.33479,-0.07052 -13.97627,0.0748 -2.64148,0.145317 -3.21983,0.196165 -3.28822,-2.876761 -0.0684,-3.072927 0.37145,-9.269247 0.87148,-12.623034 0.50003,-3.353787 1.06023,-3.864892 5.32542,-4.783322 z"
       id="path1"
       inkscape:path-effect="#path-effect1"
       inkscape:original-d="m 269.59291,77.156424 c 7.97016,-1.325761 15.94017,-2.651495 23.91049,-3.977258 5.90911,3.356511 11.81787,6.712835 17.72699,10.069385 2.12465,2.51546 4.24918,5.03074 6.37384,7.54618 3.03004,-0.0874 6.05996,-0.17473 9.08994,-0.26209 6.4679,0.8566 12.93553,1.71316 19.40332,2.56974 -1.82189,2.79074 -3.64372,5.58137 -5.46557,8.372049 -8.30737,0.20024 -16.61442,0.40048 -24.92163,0.60071 3.83897,-0.24519 7.67778,-0.49039 11.51667,-0.73558 -0.40558,0.31567 -0.81114,0.63132 -1.21671,0.94697 4.35296,7.28957 8.70574,14.57886 13.0586,21.86829 5.21133,3.54849 10.42242,7.09684 15.63362,10.64526 -1.7438,1.66727 -3.55193,3.39442 -5.3279,5.09163 -5.47563,-2.38277 -10.95106,-4.76544 -16.42658,-7.14817 -8.2863,-11.24493 -16.57227,-22.50215 -24.85841,-33.753229 -8.54776,-0.86121 -17.09518,-1.72239 -25.64277,-2.58359 -4.70815,0.28155 -9.41612,0.48018 -14.12418,0.72027 -0.57663,0.0309 -1.15325,0.10137 -1.72987,0.15209 0.43985,-6.19655 0.87968,-12.39287 1.31952,-18.58933 0.56022,-0.51111 1.12042,-1.02222 1.68063,-1.533327 z"
       sodipodi:nodetypes="cccccccccccccccccccc" /><rect
       style="fill:#006333;fill-opacity:1;stroke:none;stroke-width:2.23822;stroke-linecap:round;stroke-linejoin:round;paint-order:fill markers stroke"
       id="rect2-5"
       width="32.080288"
       height="29.740065"
       x="314.3291"
       y="-130.6331"
       inkscape:export-filename="massage preview.png"
       inkscape:export-xdpi="110.514"
       inkscape:export-ydpi="110.514" /><rect
       style="fill:#ffffff;fill-opacity:1;stroke:none;stroke-width:2.23822;stroke-linecap:round;stroke-linejoin:round;paint-order:fill markers stroke"
       id="rect2-6-62"
       width="32.080288"
       height="29.740065"
       x="346.40939"
       y="-130.6331" /><rect
       style="fill:#ffffff;fill-opacity:1;stroke:none;stroke-width:2.23822;stroke-linecap:round;stroke-linejoin:round;paint-order:fill markers stroke"
       id="rect2-2-9"
       width="32.080288"
       height="29.740065"
       x="314.3291"
       y="-100.89304" /><rect
       style="fill:#006333;fill-opacity:1;stroke:none;stroke-width:2.23822;stroke-linecap:round;stroke-linejoin:round;paint-order:fill markers stroke"
       id="rect2-6-7-1"
       width="32.080288"
       height="29.740065"
       x="346.40939"
       y="-100.89304" /><rect
       style="fill:#006333;fill-opacity:1;stroke:none;stroke-width:2.23822;stroke-linecap:round;stroke-linejoin:round;paint-order:fill markers stroke"
       id="rect2-60-2"
       width="32.080288"
       height="29.740065"
       x="250.16853"
       y="-130.6331" /><rect
       style="fill:#ffffff;fill-opacity:1;stroke:none;stroke-width:2.23822;stroke-linecap:round;stroke-linejoin:round;paint-order:fill markers stroke"
       id="rect2-6-6-70"
       width="32.080288"
       height="29.740065"
       x="282.24881"
       y="-130.6331" /><rect
       style="fill:#ffffff;fill-opacity:1;stroke:none;stroke-width:2.23822;stroke-linecap:round;stroke-linejoin:round;paint-order:fill markers stroke"
       id="rect2-2-2-93"
       width="32.080288"
       height="29.740065"
       x="250.16853"
       y="-100.89302" /><rect
       style="fill:#006333;fill-opacity:1;stroke:none;stroke-width:2.23822;stroke-linecap:round;stroke-linejoin:round;paint-order:fill markers stroke"
       id="rect2-6-7-6-6"
       width="32.080288"
       height="29.740065"
       x="282.24881"
       y="-100.89302" /><rect
       style="fill:#000000;fill-opacity:1;stroke:none;stroke-width:2.23822;stroke-linecap:round;stroke-linejoin:round;paint-order:fill markers stroke"
       id="rect2-9-0"
       width="32.080288"
       height="29.740065"
       x="314.3291"
       y="-71.152962" /><rect
       style="fill:#ffffff;fill-opacity:1;stroke:none;stroke-width:2.23822;stroke-linecap:round;stroke-linejoin:round;paint-order:fill markers stroke"
       id="rect2-6-2-6"
       width="32.080288"
       height="29.740065"
       x="346.40939"
       y="-71.152962" /><rect
       style="fill:#ffffff;fill-opacity:1;stroke:none;stroke-width:2.23822;stroke-linecap:round;stroke-linejoin:round;paint-order:fill markers stroke"
       id="rect2-2-0-2"
       width="32.080288"
       height="29.740065"
       x="314.3291"
       y="-41.412895" /><rect
       style="fill:#006333;fill-opacity:1;stroke:none;stroke-width:2.23822;stroke-linecap:round;stroke-linejoin:round;paint-order:fill markers stroke"
       id="rect2-6-7-2-6"
       width="32.080288"
       height="29.740065"
       x="346.40939"
       y="-41.412895" /><rect
       style="fill:#006333;fill-opacity:1;stroke:none;stroke-width:2.23822;stroke-linecap:round;stroke-linejoin:round;paint-order:fill markers stroke"
       id="rect2-60-3-18"
       width="32.080288"
       height="29.740065"
       x="250.16853"
       y="-71.152962" /><rect
       style="fill:#ffffff;fill-opacity:1;stroke:none;stroke-width:2.23822;stroke-linecap:round;stroke-linejoin:round;paint-order:fill markers stroke"
       id="rect2-6-6-7-7"
       width="32.080288"
       height="29.740065"
       x="282.24881"
       y="-71.152962" /><rect
       style="fill:#ffffff;fill-opacity:1;stroke:none;stroke-width:2.23822;stroke-linecap:round;stroke-linejoin:round;paint-order:fill markers stroke"
       id="rect2-2-2-5-9"
       width="32.080288"
       height="29.740065"
       x="250.16853"
       y="-41.41288" /><rect
       style="fill:#006333;fill-opacity:1;stroke:none;stroke-width:2.23822;stroke-linecap:round;stroke-linejoin:round;paint-order:fill markers stroke"
       id="rect2-60-0-2"
       width="32.080288"
       height="29.740065"
       x="410.56998"
       y="11.672833"
       transform="scale(1,-1)" /><rect
       style="fill:#ffffff;fill-opacity:1;stroke:none;stroke-width:2.23822;stroke-linecap:round;stroke-linejoin:round;paint-order:fill markers stroke"
       id="rect2-2-2-6-0"
       width="32.080288"
       height="29.740065"
       x="410.56998"
       y="41.412895"
       transform="scale(1,-1)" /><rect
       style="fill:#006333;fill-opacity:1;stroke:none;stroke-width:2.23822;stroke-linecap:round;stroke-linejoin:round;paint-order:fill markers stroke"
       id="rect2-60-3-1-2"
       width="32.080288"
       height="29.740065"
       x="410.56998"
       y="71.152969"
       transform="scale(1,-1)" /><rect
       style="fill:#ffffff;fill-opacity:1;stroke:none;stroke-width:2.23822;stroke-linecap:round;stroke-linejoin:round;paint-order:fill markers stroke"
       id="rect2-2-2-5-5-3"
       width="32.080288"
       height="29.740065"
       x="410.56998"
       y="100.89305"
       transform="scale(1,-1)" /><rect
       style="fill:#006333;fill-opacity:1;stroke:none;stroke-width:2.23822;stroke-linecap:round;stroke-linejoin:round;paint-order:fill markers stroke"
       id="rect2-60-1-7"
       width="32.080288"
       height="29.740065"
       x="378.48969"
       y="-130.6331" /><rect
       style="fill:#ffffff;fill-opacity:1;stroke:none;stroke-width:2.23822;stroke-linecap:round;stroke-linejoin:round;paint-order:fill markers stroke"
       id="rect2-2-2-9-5"
       width="32.080288"
       height="29.740065"
       x="378.48969"
       y="-100.89304" /><rect
       style="fill:#006333;fill-opacity:1;stroke:none;stroke-width:2.23822;stroke-linecap:round;stroke-linejoin:round;paint-order:fill markers stroke"
       id="rect2-60-3-4-9"
       width="32.080288"
       height="29.740065"
       x="378.48969"
       y="-71.152969" /><rect
       style="fill:#ffffff;fill-opacity:1;stroke:none;stroke-width:2.23822;stroke-linecap:round;stroke-linejoin:round;paint-order:fill markers stroke"
       id="rect2-2-2-5-7-2"
       width="32.080288"
       height="29.740065"
       x="378.48969"
       y="-41.412895" /><rect
       style="fill:#006333;fill-opacity:1;stroke:none;stroke-width:2.23822;stroke-linecap:round;stroke-linejoin:round;paint-order:fill markers stroke"
       id="rect2-6-7-6-9-2"
       width="32.080288"
       height="29.740065"
       x="282.24881"
       y="-41.41288" /><path
       style="fill:#dc6c3a;fill-opacity:1;stroke:#000000;stroke-width:5.50353;stroke-linecap:butt;stroke-linejoin:miter;stroke-dasharray:none;stroke-opacity:1"
       d="m 420.85768,-63.647773 c 0.29535,-6.94737 0.29535,-20.84216 0.0487,-27.394399 -0.24661,-6.552239 -0.66444,-5.882805 -10.12023,-2.511919 -9.45579,3.370886 -27.9111,9.382581 -40.65444,11.019658 -12.74334,1.637078 -19.77404,-1.10047 -28.6001,-5.387398 -8.82606,-4.286928 -19.4469,-10.122939 -25.83194,-16.351309 -6.38504,-6.22837 -8.53402,-12.84873 -11.4462,-14.6991 -2.91218,-1.85037 -6.61299,1.08961 -6.20955,7.24527 0.40345,6.15566 4.90506,15.551016 11.45756,23.720203 6.55251,8.169188 15.15889,15.118894 21.58105,22.918792 6.42216,7.799898 10.65976,16.449513 14.38884,22.317793 3.72908,5.868281 6.94941,8.954911 14.01197,6.746755 7.06257,-2.208156 17.96686,-9.710882 28.59024,-14.039534 10.62338,-4.328651 20.96523,-5.483036 26.43161,-6.060239 5.46639,-0.577203 6.0571,-0.577203 6.35245,-7.524573 z"
       id="path2-8"
       inkscape:path-effect="#path-effect2-7"
       inkscape:original-d="m 421.15303,-56.700403 c 0,-13.89474 0,-27.78953 0,-41.68424 -0.48933,0.79266 -0.91104,1.45967 -1.36657,2.1895 -18.45606,6.01194 -36.91138,12.02361 -55.36706,18.03545 -7.03099,-2.73767 -14.06169,-5.47521 -21.09255,-8.21282 -10.62127,-5.83623 -21.2421,-11.67225 -31.86313,-17.508377 -2.14906,-6.62062 -4.29803,-13.24098 -6.44704,-19.86148 -3.67285,2.92291 -7.37616,5.85973 -11.06423,8.7896 4.48831,9.38464 8.99657,18.776817 13.49485,28.165207 8.60673,6.94998 17.21311,13.89969 25.81966,20.84953 4.23776,8.64996 8.47535,17.29958 12.71306,25.94937 3.22047,3.08676 6.4408,6.17339 9.66121,9.2601 10.90472,-7.50302 21.80901,-15.00575 32.71352,-22.50862 10.34225,-1.15443 20.6841,-2.30881 31.02614,-3.46322 0.59073,0 1.18144,0 1.77214,0 z" /><path
       style="fill:#d5a697;fill-opacity:1;stroke:#000000;stroke-width:5.50353;stroke-linecap:butt;stroke-linejoin:miter;stroke-dasharray:none;stroke-opacity:1"
       d="m 273.29789,-83.423733 c 4.26518,-0.91843 12.23519,-2.244154 19.1749,-1.228782 6.93971,1.015373 12.84847,4.371697 16.86537,7.30769 4.01689,2.935992 6.14141,5.451278 8.71876,6.665318 2.57735,1.214039 5.60727,1.126677 10.35621,1.511294 4.74894,0.384617 11.21657,1.241178 13.53952,3.064838 2.32295,1.82366 0.50112,4.614295 -4.56349,6.109754 -5.06461,1.495459 -13.37166,1.695691 -15.60578,1.67321 -2.23412,-0.02248 1.60469,-0.267669 3.32134,-0.232432 1.71666,0.03524 1.3111,0.350886 3.28479,4.1535 1.97369,3.802614 6.32648,11.091903 11.10857,16.510866 4.78209,5.418964 9.99319,8.967307 11.72669,11.574941 1.7335,2.607635 -0.0742,4.335201 -3.70003,3.992423 -3.6258,-0.342779 -9.10123,-2.725458 -15.98062,-9.540404 -6.87939,-6.814945 -15.1684,-18.069925 -23.58535,-24.126072 -8.41695,-6.056147 -16.96437,-6.917326 -23.59329,-7.227824 -6.62893,-0.310497 -11.33479,-0.07052 -13.97627,0.0748 -2.64148,0.145317 -3.21983,0.196165 -3.28822,-2.876762 -0.0684,-3.072927 0.37145,-9.269247 0.87148,-12.623035 0.50003,-3.353787 1.06023,-3.864892 5.32542,-4.783322 z"
       id="path1-9"
       inkscape:path-effect="#path-effect1-5"
       inkscape:original-d="m 269.59291,-83.016413 c 7.97016,-1.32576 15.94017,-2.65149 23.91049,-3.97725 5.90911,3.35651 11.81787,6.71283 17.72699,10.06938 2.12465,2.51546 4.24918,5.03074 6.37384,7.54618 3.03004,-0.0874 6.05996,-0.17473 9.08994,-0.26209 6.4679,0.8566 12.93553,1.71316 19.40332,2.56974 -1.82189,2.79074 -3.64372,5.581371 -5.46557,8.37205 -8.30737,0.20024 -16.61442,0.40048 -24.92163,0.60071 3.83897,-0.24519 7.67778,-0.49039 11.51667,-0.73558 -0.40558,0.31567 -0.81114,0.63132 -1.21671,0.94697 4.35296,7.28957 8.70574,14.57886 13.0586,21.86829 5.21133,3.54849 10.42242,7.09684 15.63362,10.64526 -1.7438,1.66727 -3.55193,3.39442 -5.3279,5.09163 -5.47563,-2.38277 -10.95106,-4.76544 -16.42658,-7.14817 -8.2863,-11.24493 -16.57227,-22.50215 -24.85841,-33.753229 -8.54776,-0.86121 -17.09518,-1.72239 -25.64277,-2.58359 -4.70815,0.28155 -9.41612,0.48018 -14.12418,0.72027 -0.57663,0.0309 -1.15325,0.10137 -1.72987,0.15209 0.43985,-6.196551 0.87968,-12.392871 1.31952,-18.589331 0.56022,-0.51111 1.12042,-1.02222 1.68063,-1.53333 z"
       sodipodi:nodetypes="cccccccccccccccccccc" /><rect
       style="fill:#006333;fill-opacity:1;stroke:none;stroke-width:2.23822;stroke-linecap:round;stroke-linejoin:round;paint-order:fill markers stroke"
       id="rect2-93"
       width="32.080288"
       height="29.740065"
       x="311.42987"
       y="166.75526"
       inkscape:export-filename="massage preview.png"
       inkscape:export-xdpi="110.514"
       inkscape:export-ydpi="110.514" /><rect
       style="fill:#ffffff;fill-opacity:1;stroke:none;stroke-width:2.23822;stroke-linecap:round;stroke-linejoin:round;paint-order:fill markers stroke"
       id="rect2-6-1"
       width="32.080288"
       height="29.740065"
       x="343.51016"
       y="166.75526" /><rect
       style="fill:#ffffff;fill-opacity:1;stroke:none;stroke-width:2.23822;stroke-linecap:round;stroke-linejoin:round;paint-order:fill markers stroke"
       id="rect2-2-94"
       width="32.080288"
       height="29.740065"
       x="311.42987"
       y="196.49533" /><rect
       style="fill:#006333;fill-opacity:1;stroke:none;stroke-width:2.23822;stroke-linecap:round;stroke-linejoin:round;paint-order:fill markers stroke"
       id="rect2-6-7-7"
       width="32.080288"
       height="29.740065"
       x="343.51016"
       y="196.49533" /><rect
       style="fill:#006333;fill-opacity:1;stroke:none;stroke-width:2.23822;stroke-linecap:round;stroke-linejoin:round;paint-order:fill markers stroke"
       id="rect2-60-8"
       width="32.080288"
       height="29.740065"
       x="247.26929"
       y="166.75526" /><rect
       style="fill:#ffffff;fill-opacity:1;stroke:none;stroke-width:2.23822;stroke-linecap:round;stroke-linejoin:round;paint-order:fill markers stroke"
       id="rect2-6-6-4"
       width="32.080288"
       height="29.740065"
       x="279.34958"
       y="166.75526" /><rect
       style="fill:#ffffff;fill-opacity:1;stroke:none;stroke-width:2.23822;stroke-linecap:round;stroke-linejoin:round;paint-order:fill markers stroke"
       id="rect2-2-2-50"
       width="32.080288"
       height="29.740065"
       x="247.26929"
       y="196.49533" /><rect
       style="fill:#006333;fill-opacity:1;stroke:none;stroke-width:2.23822;stroke-linecap:round;stroke-linejoin:round;paint-order:fill markers stroke"
       id="rect2-6-7-6-3"
       width="32.080288"
       height="29.740065"
       x="279.34958"
       y="196.49533" /><rect
       style="fill:#006333;fill-opacity:1;stroke:none;stroke-width:2.23822;stroke-linecap:round;stroke-linejoin:round;paint-order:fill markers stroke"
       id="rect2-9-6"
       width="32.080288"
       height="29.740065"
       x="311.42987"
       y="226.2354" /><rect
       style="fill:#ffffff;fill-opacity:1;stroke:none;stroke-width:2.23822;stroke-linecap:round;stroke-linejoin:round;paint-order:fill markers stroke"
       id="rect2-6-2-1"
       width="32.080288"
       height="29.740065"
       x="343.51016"
       y="226.2354" /><rect
       style="fill:#ffffff;fill-opacity:1;stroke:none;stroke-width:2.23822;stroke-linecap:round;stroke-linejoin:round;paint-order:fill markers stroke"
       id="rect2-2-0-0"
       width="32.080288"
       height="29.740065"
       x="311.42987"
       y="255.97546" /><rect
       style="fill:#006333;fill-opacity:1;stroke:none;stroke-width:2.23822;stroke-linecap:round;stroke-linejoin:round;paint-order:fill markers stroke"
       id="rect2-6-7-2-63"
       width="32.080288"
       height="29.740065"
       x="343.51016"
       y="255.97546" /><rect
       style="fill:#006333;fill-opacity:1;stroke:none;stroke-width:2.23822;stroke-linecap:round;stroke-linejoin:round;paint-order:fill markers stroke"
       id="rect2-60-3-2"
       width="32.080288"
       height="29.740065"
       x="247.26929"
       y="226.2354" /><rect
       style="fill:#ffffff;fill-opacity:1;stroke:none;stroke-width:2.23822;stroke-linecap:round;stroke-linejoin:round;paint-order:fill markers stroke"
       id="rect2-6-6-7-0"
       width="32.080288"
       height="29.740065"
       x="279.34958"
       y="226.2354" /><rect
       style="fill:#ffffff;fill-opacity:1;stroke:none;stroke-width:2.23822;stroke-linecap:round;stroke-linejoin:round;paint-order:fill markers stroke"
       id="rect2-2-2-5-6"
       width="32.080288"
       height="29.740065"
       x="247.26929"
       y="255.97546" /><rect
       style="fill:#006333;fill-opacity:1;stroke:none;stroke-width:2.23822;stroke-linecap:round;stroke-linejoin:round;paint-order:fill markers stroke"
       id="rect2-60-0-1"
       width="32.080288"
       height="29.740065"
       x="407.67075"
       y="-285.71552"
       transform="scale(1,-1)" /><rect
       style="fill:#ffffff;fill-opacity:1;stroke:none;stroke-width:2.23822;stroke-linecap:round;stroke-linejoin:round;paint-order:fill markers stroke"
       id="rect2-2-2-6-5"
       width="32.080288"
       height="29.740065"
       x="407.67075"
       y="-255.97546"
       transform="scale(1,-1)" /><rect
       style="fill:#006333;fill-opacity:1;stroke:none;stroke-width:2.23822;stroke-linecap:round;stroke-linejoin:round;paint-order:fill markers stroke"
       id="rect2-60-3-1-5"
       width="32.080288"
       height="29.740065"
       x="407.67075"
       y="-226.23538"
       transform="scale(1,-1)" /><rect
       style="fill:#ffffff;fill-opacity:1;stroke:none;stroke-width:2.23822;stroke-linecap:round;stroke-linejoin:round;paint-order:fill markers stroke"
       id="rect2-2-2-5-5-4"
       width="32.080288"
       height="29.740065"
       x="407.67075"
       y="-196.49532"
       transform="scale(1,-1)" /><rect
       style="fill:#006333;fill-opacity:1;stroke:none;stroke-width:2.23822;stroke-linecap:round;stroke-linejoin:round;paint-order:fill markers stroke"
       id="rect2-60-1-76"
       width="32.080288"
       height="29.740065"
       x="375.59045"
       y="166.75526" /><rect
       style="fill:#ffffff;fill-opacity:1;stroke:none;stroke-width:2.23822;stroke-linecap:round;stroke-linejoin:round;paint-order:fill markers stroke"
       id="rect2-2-2-9-56"
       width="32.080288"
       height="29.740065"
       x="375.59045"
       y="196.49533" /><rect
       style="fill:#006333;fill-opacity:1;stroke:none;stroke-width:2.23822;stroke-linecap:round;stroke-linejoin:round;paint-order:fill markers stroke"
       id="rect2-60-3-4-93"
       width="32.080288"
       height="29.740065"
       x="375.59045"
       y="226.23538" /><rect
       style="fill:#ffffff;fill-opacity:1;stroke:none;stroke-width:2.23822;stroke-linecap:round;stroke-linejoin:round;paint-order:fill markers stroke"
       id="rect2-2-2-5-7-7"
       width="32.080288"
       height="29.740065"
       x="375.59045"
       y="255.97546" /><rect
       style="fill:#006333;fill-opacity:1;stroke:none;stroke-width:2.23822;stroke-linecap:round;stroke-linejoin:round;paint-order:fill markers stroke"
       id="rect2-6-7-6-9-4"
       width="32.080288"
       height="29.740065"
       x="279.34958"
       y="255.97546" /><ellipse
       style="fill:#000000;fill-opacity:1;stroke:none;stroke-width:6.21514;stroke-linecap:round;stroke-linejoin:round;paint-order:fill markers stroke"
       id="path3"
       cx="334.48993"
       cy="237.39474"
       rx="25.060369"
       ry="26.06502" /><path
       style="fill:#dc6c3a;fill-opacity:1;stroke:#000000;stroke-width:5.50353;stroke-linecap:butt;stroke-linejoin:miter;stroke-dasharray:none;stroke-opacity:1"
       d="m 417.95844,233.74058 c 0.29535,-6.94737 0.29535,-20.84216 0.0487,-27.3944 -0.24661,-6.55224 -0.66444,-5.8828 -10.12023,-2.51192 -9.45579,3.37089 -27.9111,9.38258 -40.65444,11.01966 -12.74334,1.63708 -19.77404,-1.10047 -28.6001,-5.3874 -8.82606,-4.28693 -19.4469,-10.12294 -25.83194,-16.35131 -6.38504,-6.22837 -8.53402,-12.84873 -11.4462,-14.6991 -2.91218,-1.85037 -6.61299,1.08961 -6.20955,7.24527 0.40344,6.15566 4.90506,15.55102 11.45756,23.72021 6.55251,8.16918 15.15889,15.11889 21.58105,22.91879 6.42216,7.7999 10.65976,16.44951 14.38884,22.31779 3.72908,5.86828 6.94941,8.95491 14.01197,6.74676 7.06257,-2.20816 17.96686,-9.71089 28.59024,-14.03954 10.62338,-4.32865 20.96523,-5.48303 26.43161,-6.06024 5.46639,-0.5772 6.0571,-0.5772 6.35245,-7.52457 z"
       id="path2-5"
       inkscape:path-effect="#path-effect2-6"
       inkscape:original-d="m 418.25379,240.68795 c 0,-13.89474 0,-27.78953 0,-41.68425 -0.48933,0.79267 -0.91104,1.45968 -1.36657,2.18951 -18.45606,6.01194 -36.91138,12.02361 -55.36706,18.03545 -7.03099,-2.73767 -14.06169,-5.47521 -21.09255,-8.21282 -10.62127,-5.83623 -21.2421,-11.67225 -31.86313,-17.50838 -2.14906,-6.62062 -4.29803,-13.24098 -6.44704,-19.86148 -3.67285,2.92291 -7.37616,5.85973 -11.06423,8.7896 4.48831,9.38464 8.99657,18.77682 13.49485,28.16521 8.60673,6.94998 17.21311,13.89969 25.81966,20.84953 4.23776,8.64996 8.47535,17.29958 12.71306,25.94937 3.22047,3.08676 6.4408,6.17339 9.66121,9.2601 10.90472,-7.50302 21.80901,-15.00575 32.71352,-22.50862 10.34225,-1.15443 20.6841,-2.30881 31.02614,-3.46322 0.59073,0 1.18144,0 1.77214,0 z" /><path
       style="fill:#d5a697;fill-opacity:1;stroke:#000000;stroke-width:5.50353;stroke-linecap:butt;stroke-linejoin:miter;stroke-dasharray:none;stroke-opacity:1"
       d="m 270.39865,213.96462 c 4.26518,-0.91843 12.23519,-2.24415 19.1749,-1.22878 6.93971,1.01537 12.84847,4.3717 16.86537,7.30769 4.01689,2.93599 6.14141,5.45128 8.71876,6.66532 2.57735,1.21403 5.60727,1.12667 10.35621,1.51129 4.74894,0.38462 11.21657,1.24118 13.53952,3.06484 2.32295,1.82366 0.50112,4.61429 -4.56349,6.10975 -5.06461,1.49546 -13.37166,1.69569 -15.60578,1.67321 -2.23412,-0.0225 1.60469,-0.26767 3.32134,-0.23243 1.71666,0.0352 1.3111,0.35089 3.28479,4.1535 1.97369,3.80261 6.32648,11.0919 11.10857,16.51087 4.78209,5.41896 9.99319,8.9673 11.72669,11.57494 1.7335,2.60763 -0.0742,4.3352 -3.70003,3.99242 -3.6258,-0.34278 -9.10123,-2.72546 -15.98062,-9.5404 -6.87939,-6.81495 -15.1684,-18.06993 -23.58535,-24.12608 -8.41695,-6.05614 -16.96437,-6.91732 -23.59329,-7.22782 -6.62893,-0.3105 -11.33479,-0.0705 -13.97627,0.0748 -2.64148,0.14532 -3.21983,0.19616 -3.28822,-2.87676 -0.0684,-3.07293 0.37145,-9.26925 0.87148,-12.62304 0.50003,-3.35378 1.06023,-3.86489 5.32542,-4.78332 z"
       id="path1-2"
       inkscape:path-effect="#path-effect1-1"
       inkscape:original-d="m 266.69367,214.37194 c 7.97016,-1.32576 15.94017,-2.65149 23.91049,-3.97725 5.90911,3.35651 11.81787,6.71283 17.72699,10.06938 2.12465,2.51546 4.24918,5.03074 6.37384,7.54618 3.03004,-0.0874 6.05996,-0.17473 9.08994,-0.26209 6.4679,0.8566 12.93553,1.71316 19.40332,2.56974 -1.82189,2.79074 -3.64372,5.58137 -5.46557,8.37205 -8.30737,0.20024 -16.61442,0.40048 -24.92163,0.60071 3.83897,-0.24519 7.67778,-0.49039 11.51667,-0.73558 -0.40558,0.31567 -0.81114,0.63132 -1.21671,0.94697 4.35296,7.28957 8.70574,14.57886 13.0586,21.86829 5.21133,3.54849 10.42242,7.09684 15.63362,10.64526 -1.7438,1.66727 -3.55193,3.39442 -5.3279,5.09163 -5.47563,-2.38277 -10.95106,-4.76544 -16.42658,-7.14817 -8.2863,-11.24493 -16.57227,-22.50215 -24.85841,-33.75323 -8.54776,-0.86121 -17.09518,-1.72239 -25.64277,-2.58359 -4.70815,0.28155 -9.41612,0.48018 -14.12418,0.72027 -0.57663,0.0309 -1.15325,0.10137 -1.72987,0.15209 0.43985,-6.19655 0.87968,-12.39287 1.31952,-18.58933 0.56022,-0.51111 1.12042,-1.02222 1.68063,-1.53333 z"
       sodipodi:nodetypes="cccccccccccccccccccc" /></g></svg>
